inDegrees=no
num_controls=7
num_derivatives=13
num_iterations=183
num_multipliers=7
num_parameters=0
num_slacks=7
num_states=26
objective=5.689697
objective_accelerations=0.478495
objective_balance=0.040638
objective_effort=0.480705
objective_height=4.665609
objective_ligament=0.024249
solver_duration=1992.183368
status=Solve_Succeeded
success=true
DataType=double
version=3
OpenSimVersion=4.4-2022-07-23-0e9fedc
endheader
time	/jointset/ground_pelvis/pelvis_tilt/value	/jointset/ground_pelvis/pelvis_tx/value	/jointset/ground_pelvis/pelvis_ty/value	/jointset/hip_l/hip_flexion_l/value	/jointset/hip_l/hip_adduction_l/value	/jointset/hip_l/hip_rotation_l/value	/jointset/back/lumbar_extension/value	/jointset/patellofemoral_l/patellar_flexion_l/value	/jointset/knee_l/knee_flexion_l/value	/jointset/knee_l/knee_adduction_l/value	/jointset/knee_l/knee_rotation_l/value	/jointset/ankle_l/ankle_angle_l/value	/jointset/subtalar_l/subtalar_angle_l/value	/jointset/ground_pelvis/pelvis_tilt/speed	/jointset/ground_pelvis/pelvis_tx/speed	/jointset/ground_pelvis/pelvis_ty/speed	/jointset/hip_l/hip_flexion_l/speed	/jointset/hip_l/hip_adduction_l/speed	/jointset/hip_l/hip_rotation_l/speed	/jointset/back/lumbar_extension/speed	/jointset/patellofemoral_l/patellar_flexion_l/speed	/jointset/knee_l/knee_flexion_l/speed	/jointset/knee_l/knee_adduction_l/speed	/jointset/knee_l/knee_rotation_l/speed	/jointset/ankle_l/ankle_angle_l/speed	/jointset/subtalar_l/subtalar_angle_l/speed	/forceset/tau_hip_flexion_l	/forceset/tau_hip_adduction_l	/forceset/tau_hip_rotation_l	/forceset/tau_knee_flexion_l	/forceset/tau_ankle_angle_l	/forceset/tau_subtalar_angle_l	/forceset/tau_lumbar_extension	lambda_cid13_p0	lambda_cid13_p1	lambda_cid13_p2	lambda_cid13_p3	lambda_cid13_p4	lambda_cid13_p5	lambda_cid14_p0	/jointset/ground_pelvis/pelvis_tilt/accel	/jointset/ground_pelvis/pelvis_tx/accel	/jointset/ground_pelvis/pelvis_ty/accel	/jointset/hip_l/hip_flexion_l/accel	/jointset/hip_l/hip_adduction_l/accel	/jointset/hip_l/hip_rotation_l/accel	/jointset/back/lumbar_extension/accel	/jointset/patellofemoral_l/patellar_flexion_l/accel	/jointset/knee_l/knee_flexion_l/accel	/jointset/knee_l/knee_adduction_l/accel	/jointset/knee_l/knee_rotation_l/accel	/jointset/ankle_l/ankle_angle_l/accel	/jointset/subtalar_l/subtalar_angle_l/accel	gamma_cid13_p0	gamma_cid13_p1	gamma_cid13_p2	gamma_cid13_p3	gamma_cid13_p4	gamma_cid13_p5	gamma_cid14_p0
1.5	-0.003670764383123802	-0.01860744541556895	0.8610033872191628	0.6503780005927343	-0.3250307874206143	-0.1459915398767532	-0.7918307372005705	0.7055926713699081	0.7055926713701098	-0.1255471432092512	-0.1740855567773983	0.1085273507198209	0.005036927616687617	0.3600828456033867	0.2543274893170235	0.3769296769936127	-1.920728153475437	0.09038422801003802	-0.6057630490121111	0.8404201131185379	-1.800648845604774	-1.800648845604925	-0.1129800616816207	0.009259290168307224	-0.3463996436975562	-0.01301522716647991	-0.2021454662160487	0.01627010282516129	-0.002213144507064705	-0.2080473942184138	0.07918836406033133	0.04573519985073429	0.2810025459681758	-17.03843313687054	-19.31710427176118	5.409707915545852	-7.83476911982656	-672.6739859857894	-80.60994554317712	-17.7899478155148	-0.02879132366551654	0.6358949530132143	-0.5354363035895173	-0.6587435856857067	0.4921782333221452	-0.2227050902292024	1.881034011159784	-0.8605762439707723	-0.860576243970772	-0.1624637796839084	0.1497171268857243	-0.1096640670332552	0.494162996431784	1.24603336327237e-07	1.099605468837779e-06	-3.383997973807223e-07	9.555856181549191e-08	2.344031865482925e-07	3.258549960194856e-07	1.670535163413164e-07
1.51	-7.166387825943948e-05	-0.01603261181484752	0.8647451862096844	0.6311396802562571	-0.3241029593450631	-0.1520607028118159	-0.7833338434836041	0.6875453057073097	0.6875453057074746	-0.1266856287152947	-0.1739869642191358	0.1050582500802307	0.004930856069295345	0.359690787822725	0.2606116570612759	0.3713565344561055	-1.926690256577272	0.09518008295267905	-0.6079890114489519	0.8588388889528772	-1.808580761284086	-1.80858076128422	-0.1147100745958684	0.01047118506457756	-0.3473530143194607	-0.008184484757463183	-0.1946952634082418	0.01547414628920608	-0.002207014098404985	-0.2050826312310197	0.07951381852364521	0.04493186517217668	0.2739401434893725	-16.72253086294974	-19.05317427985569	5.401492999140682	-7.729960692021218	-668.5989178426772	-80.48981561433762	-18.39171526901101	-0.05138272342935672	0.62056810128836	-0.5792517072155027	-0.5280942521993582	0.4729698188360992	-0.2103144004648278	1.804338171295063	-0.7230023733482565	-0.7230023733455946	-0.1770308974125486	0.1086625593332784	-0.07801782560376937	0.4795556714935235	1.04222659182343e-07	1.164031044256094e-06	-2.619964676486086e-07	1.198773402138068e-07	2.101124465919055e-07	3.308090068463435e-07	1.623588369501916e-07
1.52	0.003522122105165163	-0.01339575845345216	0.8684290540791542	0.6118491087728083	-0.3231272365812658	-0.1581496798872568	-0.7746563542479495	0.6694259202592299	0.6694259202593597	-0.1278411665205015	-0.1738759053342463	0.1015816468812545	0.004873497107664613	0.3590199413155499	0.2667314414518112	0.3653434527832337	-1.931178382869783	0.09996316565936034	-0.6097258770879259	0.8765392168561795	-1.815052802700871	-1.815052802700987	-0.11639052151481	0.01175255549427168	-0.3479001555747535	-0.003272710014170219	-0.1872450606004291	0.01467818975325298	-0.002200883689725387	-0.202117868243625	0.07983927298695984	0.04412853049362146	0.2668777410105728	-16.41024846417297	-18.78922685293177	5.393979730004497	-7.642502547646913	-664.600931030985	-80.40201807334721	-18.97661282828891	-0.08454906896820713	0.6030182822698241	-0.6234241306624314	-0.3639482238209505	0.4896237861301974	-0.1248857306558926	1.737344424952372	-0.5686013914653369	-0.5686013914653372	-0.1525505806226698	0.1636122335704746	-0.02841819371088417	0.5103694632870319	9.520503577879391e-08	1.205190317186089e-06	-2.407349917861436e-07	1.321423765447204e-07	2.022147362541198e-07	3.424396199802034e-07	1.62439988652568e-07
1.53	0.007107770442551301	-0.01069859298979773	0.8720506425503267	0.5925211087061234	-0.32210379344117	-0.1642536348736272	-0.7658055610642175	0.6512491881259321	0.651249188126059	-0.1290132476434691	-0.173751744997675	0.0981016112592126	0.004865618983518722	0.358060592465727	0.2726671334527059	0.3589060909640984	-1.934164443946753	0.1047217428641696	-0.6109930595240732	0.8934864006664213	-1.820038897967698	-1.820038897967729	-0.1180053416568372	0.01308330814417571	-0.3480367490308739	0.001710412547540827	-0.1797012450575189	0.01377960213028601	-0.002240426157577411	-0.1992686435163686	0.08021817096297523	0.04323449547843004	0.2597262429310841	-16.0934770922798	-18.48321661394261	5.375810628737213	-7.499563244557953	-660.7226445279241	-80.26350533963385	-19.54020481022385	-0.108997538241342	0.5836932470834925	-0.6640714143912955	-0.227356058058123	0.4682961240977348	-0.1166681904818791	1.653452475490679	-0.4254387667490249	-0.425438766736226	-0.1626984386474778	0.1183025621439421	0.004287390115774815	0.4941226749467996	9.82606569754236e-08	1.221629143722244e-06	-2.780617356601797e-07	1.316003119290202e-07	2.117346198860978e-07	3.611641230652528e-07	1.675954608917893e-07
1.54	0.01068235134238823	-0.007943100888517532	0.8756058215619376	0.5731709638269845	-0.3210329002417381	-0.1703680684224362	-0.7567892866190968	0.6330302300054756	0.6330302300055985	-0.1302008271093882	-0.1736141779783149	0.09462232316494516	0.004907939889456661	0.3568064538058248	0.2783967689769669	0.3520615608708743	-1.935607345360647	0.1094531775266363	-0.6118215895757295	0.9096354691338879	-1.823498000132831	-1.823498000132777	-0.1194901901050537	0.01443389205182268	-0.3477506500198587	0.006767096002598201	-0.1721574295146037	0.01288101450732018	-0.002279968625437036	-0.1964194187891104	0.08059706893899093	0.04234046046323975	0.2525747448515989	-15.78130166881628	-18.17706329069337	5.358374905850256	-7.370555651162062	-656.9338643849766	-80.16040678818447	-20.07893783684442	-0.1435070309840497	0.5618069869430843	-0.7048577854801781	-0.05531629120562908	0.4841952776616946	-0.03715525375769969	1.577721356397391	-0.2632027711266217	-0.2632027711266218	-0.1265562418605418	0.1675784851190555	0.05612029971622717	0.5250816419562981	1.120659622989713e-07	1.229846213439804e-06	-3.68145973608987e-07	1.246328689069034e-07	2.329468222353638e-07	3.942646772020888e-07	1.79203247501441e-07
1.55	0.01424293289041898	-0.005131399473008483	0.8790905905792711	0.5538140265880145	-0.3199150284024717	-0.1764882416164809	-0.7476156520100531	0.614784263498878	0.6147842634989317	-0.1314031285379886	-0.17346284408279	0.0911479404301833	0.005000952646364122	0.3552601384156125	0.2839025695235429	0.3448309385612315	-1.935517844246443	0.1141109334801627	-0.612136808123404	0.9249450335212829	-1.825434384831491	-1.82543438483142	-0.1209512943417795	0.01583669927568773	-0.3470552905893483	0.01184221707121664	-0.1645600300218835	0.01182278993504394	-0.002353433864413685	-0.1937102969087794	0.08104738525357451	0.04136983978726583	0.2453904685050538	-15.46268570324529	-17.83694110478026	5.333426552976345	-7.192401729411756	-653.3314489167706	-80.0354070325245	-20.58920036941734	-0.1676456710113899	0.5388453540568739	-0.7413026790201033	0.08043014407197062	0.4549456845191436	-0.01707506807909961	1.485611106875842	-0.1197606307524786	-0.1197606307500164	-0.1528908536235253	0.1270717508037924	0.08686789065971141	0.4996174945769322	1.382567732470109e-07	1.228590389431593e-06	-5.19016019948288e-07	1.10262272503481e-07	2.676306091936785e-07	4.439289423333736e-07	1.982452224074577e-07
1.56	0.01778656090895259	-0.002265864298925278	0.8825012257284454	0.5344658537264544	-0.3187509030176065	-0.1826092409785627	-0.7382933143317424	0.5965267522829893	0.5965267522829757	-0.1326194416767625	-0.173297394133073	0.08768263611491481	0.005144894645010222	0.3534157479065387	0.2891635206917981	0.3372347872390321	-1.933854469878694	0.1187038866465299	-0.6119868231833505	0.9393760829872904	-1.825806941990822	-1.825806941990735	-0.1222925321403022	0.01725710289089575	-0.3459349661211871	0.01695294435032786	-0.1569626305291579	0.01076456536277053	-0.002426899103368012	-0.1910011750284483	0.08149770156815894	0.04039921911129509	0.238206192158512	-15.14929903691971	-17.49745706295134	5.310355441694957	-7.030287088501562	-649.8270760611657	-79.95716761611901	-21.06744494649444	-0.2031220547563717	0.5128371112789113	-0.7779635879914898	0.2594583595035072	0.4712347202298353	0.05588544378785578	1.402018372119893	0.04956273673924885	0.04956273673924771	-0.1025829542199269	0.1710977633876441	0.1411133072463789	0.5322028840548589	1.489387338951355e-07	1.234579804486108e-06	-5.939220026125335e-07	1.044002136627374e-07	2.862267061475627e-07	4.748484150464974e-07	2.073919412871727e-07
1.57	0.0213102409941873	0.0006509884553561995	0.885834143915495	0.5151422306167605	-0.3175412059048396	-0.1887264302053657	-0.7288311639877177	0.5782733711859988	0.5782733711859466	-0.1338485512772045	-0.1731176552225829	0.08423064727358118	0.005340091177315572	0.3512714209726425	0.2941590314687667	0.3292951171548091	-1.93060371084552	0.1232177745593789	-0.6113667146951401	0.9528935512378145	-1.824602693272131	-1.824602693272068	-0.1235157364469362	0.01869612522640867	-0.3443933333288222	0.02208506779976856	-0.1493608837970902	0.009624100050446243	-0.002531316186650592	-0.188382054075896	0.08196003590381974	0.03930891435831057	0.2310353554548196	-14.85263725444314	-17.10054889659344	5.275253657775164	-6.79517667682621	-646.544117920473	-79.80486630970499	-21.51014843627147	-0.2274125120674872	0.4857306410163948	-0.809971902695775	0.3978556508103774	0.4387073125416642	0.07790664072140138	1.302545864544229	0.1958030968583232	0.1958030968547219	-0.1299600014787117	0.1309954653622177	0.1711405424130624	0.5033895712603237	1.402346316683667e-07	1.249625768369029e-06	-5.738729056829603e-07	1.091738267753422e-07	2.84713190595909e-07	4.823368972369201e-07	2.041695901340105e-07
